<svg xmlns="http://www.w3.org/2000/svg" width="39" height="49" viewBox="0 0 39 49">
    <defs>
        <linearGradient id="a" x1="50%" x2="50%" y1="0%" y2="100%">
            <stop offset="0%" stop-color="#F27C36"/>
            <stop offset="100%" stop-color="#ED485F"/>
        </linearGradient>
    </defs>
    <g fill="url(#a)" fill-rule="nonzero" transform="translate(-31 -17)">
        <path d="M67.094 31.01l-1.825 1.413-2.94 2.276a7.672 7.672 0 0 0-3.125-4.786l5.659-4.382-1.753-2.326a2.187 2.187 0 0 1 .402-3.037l4.266 5.658c.631.838.852 1.862.7 2.827a3.692 3.692 0 0 1-1.384 2.356zM49.157 50.792c6.312-3.308 11.932-4.244 13.35-1.972 1.164 1.866-.817 5.405-4.694 9.03l3.68 5.986h2.508A2.152 2.152 0 0 1 66.08 66H58.508l-1.33-2.164-2.134-3.47-.834-1.355c.295-.488.465-1.06.465-1.674 0-1.778-1.421-3.22-3.175-3.22-.097 0-.192.01-.287.018l-2.056-3.343z"/>
        <path d="M31.504 30.175c.33-1.609 1.734-2.818 3.419-2.818.48 0 .938.1 1.355.277a3.543 3.543 0 0 1 2.137 3.264v16.79c0 1.197.956 2.167 2.137 2.167a2.135 2.135 0 0 0 2.019-1.46l1.984-4.987-3.852-13.176-.009-.027a10.892 10.892 0 0 1-.128-.443C39.163 24.6 41.688 19.21 46.408 17l9.073 3.198c1.114.386 1.71 1.611 1.334 2.741l-2.297-.833a1.74 1.74 0 0 0-2.232 1.07 1.777 1.777 0 0 0 1.056 2.264l2.37.86a2.128 2.128 0 0 1-2.734 1.268l-2.504-.933c-.178 1.022.388 2.054 1.384 2.415l4.796 1.77a5.954 5.954 0 0 1 3.558 5.219c.003.086.01.172.01.259 0 .053-.006.105-.008.158l.016-.04h7.486v-2.927c0-.818.997-1.53 1.63-1.898l.507-.269v7.172c-.027 2.02-1.647 3.648-3.645 3.648h-8.444c-.747 0-1.474.09-2.17.26.033-.009.067-.021.1-.031-.036.01-.072.021-.11.03l-.065.017c-3.763.944-6.621 4.215-7.002 8.222l-.015.21a9.452 9.452 0 0 0 2.355 6.997c.266.386.424.854.424 1.36 0 1.311-1.048 2.374-2.341 2.374-.465 0-.898-.138-1.263-.374l-4.74-2.837a2.17 2.17 0 0 0-1.095 1.892c0 .538.193 1.03.513 1.409l1.967 2.165h2.516c1.153.032 2.079.987 2.079 2.164h-6.854c0-2.042-1.634-3.698-3.648-3.698v-6.308c1.671-.337 2.931-1.832 2.931-3.626 0-.09-.004-.179-.01-.268-.214.033-.43.055-.653.055-.83 0-1.605-.237-2.268-.643a4.472 4.472 0 0 1-2.137-3.823V30.898c0-.782-.626-1.416-1.397-1.416-.745 0-1.351.59-1.393 1.335a3.706 3.706 0 0 1 1.59 3.052c0 2.042-1.633 3.698-3.648 3.698v-6.669c0-.248.026-.49.074-.723z"/>
    </g>
</svg>
