<svg width="30" height="28" viewBox="0 0 30 28" version="1.1" xmlns="http://www.w3.org/2000/svg" xmlns:xlink="http://www.w3.org/1999/xlink">
<title>ic-online</title>
<desc>Created using Figma</desc>
<g id="Canvas" transform="translate(358 173)">
<g id="ic-online">
<g id="OPt 2">
<g id="prog2 pro3 Mobile Portrait opt2 Copy 2">
<g id="nav">
<g id="Group 6" filter="url(#filter0_d)">
<g id="ic online">
<g id="Shape">
<use xlink:href="#path0_fill" transform="translate(-354 -171)" fill="#FFFFFF"/>
</g>
</g>
</g>
</g>
</g>
</g>
</g>
</g>
<defs>
<filter id="filter0_d" filterUnits="userSpaceOnUse" x="-358" y="-173" width="30" height="28" color-interpolation-filters="sRGB">
<feFlood flood-opacity="0" result="BackgroundImageFix"/>
<feColorMatrix in="SourceAlpha" type="matrix" values="0 0 0 0 0 0 0 0 0 0 0 0 0 0 0 0 0 0 255 0"/>
<feOffset dx="0" dy="2"/>
<feGaussianBlur stdDeviation="2"/>
<feColorMatrix type="matrix" values="0 0 0 0 0 0 0 0 0 0 0 0 0 0 0 0 0 0 0.05 0"/>
<feBlend mode="normal" in2="BackgroundImageFix" result="effect1_dropShadow"/>
<feBlend mode="normal" in="SourceGraphic" in2="effect1_dropShadow" result="shape"/>
</filter>
<path id="path0_fill" fill-rule="evenodd" d="M 20 12L 2 12L 2 2L 20 2L 20 12ZM 20 0L 2 0C 0.89 0 0 0.89 0 2L 0 14C 2.22045e-16 15.1046 0.89543 16 2 16L 9 16L 7 19L 7 20L 15 20L 15 19L 13 16L 20 16C 21.1046 16 22 15.1046 22 14L 22 2C 22 0.89 21.1 0 20 0Z"/>
</defs>
</svg>
